<svg xmlns="http://www.w3.org/2000/svg" viewBox="0 0 64 64" role="img" aria-label="Minesweeper bomb">
  <defs>
    <linearGradient id="body" x1="16" y1="20" x2="48" y2="60" gradientUnits="userSpaceOnUse">
      <stop offset="0" stop-color="#4a4a4a" />
      <stop offset="1" stop-color="#1f1f1f" />
    </linearGradient>
  </defs>
  <circle cx="28" cy="38" r="18" fill="url(#body)" stroke="#0d0d0d" stroke-width="4" />
  <path d="M34 20c1.5-4 5.5-7 11-7h6" stroke="#0d0d0d" stroke-width="4" stroke-linecap="round" />
  <path
    d="M52 13c1.5 0 3-1 3-2.5S53.5 8 52 8s-3 1-3 2.5S50.5 13 52 13Z"
    fill="#f9d44c"
    stroke="#d6a600"
    stroke-width="2"
  />
  <path d="M39 16c-1 3-4 5-7 6" stroke="#f0f0f0" stroke-width="3" stroke-linecap="round" />
  <path
    d="M49 6l1.5 4M55 8l-3.5 3M58 14l-4-1.5M56 19l-3-3.5M50 21l1.5-4M44 19l3.5-3"
    stroke="#ff8243"
    stroke-width="2"
    stroke-linecap="round"
  />
</svg>
